<?xml version="1.0" encoding="utf-8"?>
<!-- Generator: Adobe Illustrator 12.0.1, SVG Export Plug-In . SVG Version: 6.00 Build 51448)  -->
<!DOCTYPE svg PUBLIC "-//W3C//DTD SVG 1.1//EN" "http://www.w3.org/Graphics/SVG/1.1/DTD/svg11.dtd" [
        <!ENTITY ns_svg "http://www.w3.org/2000/svg">
        <!ENTITY ns_xlink "http://www.w3.org/1999/xlink">
        ]>
<svg  version="1.1" id="Layer_1" xmlns="&ns_svg;" xmlns:xlink="&ns_xlink;" width="231" height="164" viewBox="0 0 231 164"
	 overflow="visible" enable-background="new 0 0 231 164" xml:space="preserve">
<g>
	<defs>
		<rect id="XMLID_1_" x="-174" y="-159" width="612" height="792"/>
	</defs>
	<clipPath id="XMLID_3_">
		<use xlink:href="#XMLID_1_" />
	</clipPath>
	<path clip-path="url(#XMLID_3_)" fill="#FFFFFF" d="M214.406,145.114c0,3.989-3.233,7.224-7.224,7.224H23.921
		c-3.989,0-7.223-3.235-7.223-7.224V19.891c0-3.99,3.234-7.224,7.223-7.224h183.261c3.99,0,7.224,3.234,7.224,7.224V145.114z"/>
	<path clip-path="url(#XMLID_3_)" fill="none" stroke="#000000" stroke-width="0.602" d="M214.406,145.114
		c0,3.989-3.233,7.224-7.224,7.224H23.921c-3.989,0-7.223-3.235-7.223-7.224V19.891c0-3.99,3.234-7.224,7.223-7.224h183.261
		c3.99,0,7.224,3.234,7.224,7.224V145.114z"/>
	<rect x="24.169" y="104.979" clip-path="url(#XMLID_3_)" fill="#00AEDB" width="39.705" height="39.769"/>
	<rect x="71.611" y="105.082" clip-path="url(#XMLID_3_)" fill="#00AEDB" width="40.132" height="39.714"/>
	<rect x="119.46" y="105.06" clip-path="url(#XMLID_3_)" fill="#00AEDB" width="39.67" height="39.734"/>
	<rect x="166.874" y="105.057" clip-path="url(#XMLID_3_)" fill="#00AEDB" width="39.91" height="39.721"/>
	<rect x="24.171" y="65.523" clip-path="url(#XMLID_3_)" width="182.606" height="34.086"/>
	<rect x="87.075" y="71.841" clip-path="url(#XMLID_3_)" fill="#FFFFFF" width="4.027" height="22.778"/>
	<polygon clip-path="url(#XMLID_3_)" fill="#FFFFFF" points="43.907,94.62 43.907,90.593 35.226,90.593 35.226,71.842 
		31.198,71.842 31.198,94.62 	"/>
	<path clip-path="url(#XMLID_3_)" fill="#FFFFFF" d="M100.414,83.419v4.782c0,3.46,3.083,2.957,3.083,2.957h5.915
		c2.642,0,2.013-3.02,2.013-3.02h4.028v2.454c0,4.469-4.154,4.404-4.154,4.404h-9.753c-5.286,0-5.159-6.165-5.159-6.165v-5.412
		v-5.412c0,0-0.127-6.166,5.159-6.166h9.753c0,0,4.154-0.062,4.154,4.405V78.7h-4.028c0,0,0.629-3.023-2.013-3.023h-5.915
		c0,0-3.083-0.501-3.083,2.961V83.419z"/>
	<polygon clip-path="url(#XMLID_3_)" fill="#FFFFFF" points="195.551,83.419 190.327,79.707 190.327,87.196 	"/>
	<path clip-path="url(#XMLID_3_)" fill="#FFFFFF" d="M59.702,71.841H58h-2.326h-1.7l-8.18,22.778h4.027l2.079-5.789h9.875
		l2.077,5.789h4.027L59.702,71.841z M53.348,84.799l3.502-9.181l3.479,9.181H53.348z"/>
	<path clip-path="url(#XMLID_3_)" fill="#FFFFFF" d="M134.832,86.689c0,0,4.153-0.881,4.153-8.304c0-6.544-5.409-6.544-5.409-6.544
		h-13.784V94.62h4.031v-7.739h6.543l5.287,7.739h4.78L134.832,86.689z M133.074,83.166h-9.251v-6.92h9.251
		c0,0,1.571-0.316,1.571,3.27C134.646,83.104,133.074,83.166,133.074,83.166"/>
	<polygon clip-path="url(#XMLID_3_)" fill="#FFFFFF" points="77.006,75.87 77.006,94.62 72.978,94.62 72.978,75.87 66.436,75.87 
		66.436,71.841 83.802,71.841 83.802,75.87 	"/>
	<polygon clip-path="url(#XMLID_3_)" fill="#FFFFFF" points="144.459,94.62 144.459,71.842 159.814,71.842 159.814,75.87 
		148.489,75.87 148.489,90.593 159.814,90.593 159.814,94.62 	"/>
	<polygon clip-path="url(#XMLID_3_)" fill="#FFFFFF" points="184.35,94.62 184.35,71.842 199.703,71.842 199.703,75.87 
		188.375,75.87 188.375,90.593 199.703,90.593 199.703,94.62 	"/>
	<polygon clip-path="url(#XMLID_3_)" fill="#FFFFFF" points="174.283,75.87 174.283,94.62 170.255,94.62 170.255,75.87 
		163.709,75.87 163.709,71.841 181.077,71.841 181.077,75.87 	"/>
	<polygon clip-path="url(#XMLID_3_)" fill="#FFFFFF" points="155.661,83.419 150.438,79.707 150.438,87.196 	"/>
	<rect x="24.195" y="20.27" clip-path="url(#XMLID_3_)" fill="#00AEDB" width="39.672" height="39.864"/>
	<rect x="71.593" y="20.27" clip-path="url(#XMLID_3_)" fill="#00AEDB" width="40.153" height="39.864"/>
	<rect x="119.455" y="20.238" clip-path="url(#XMLID_3_)" fill="#00AEDB" width="39.67" height="39.865"/>
	<rect x="166.869" y="20.251" clip-path="url(#XMLID_3_)" fill="#00AEDB" width="39.91" height="39.913"/>
	<path clip-path="url(#XMLID_3_)" d="M212.833,156.209c0-2.452,1.849-4.299,4.219-4.299c2.342,0,4.19,1.847,4.19,4.299
		c0,2.493-1.849,4.328-4.19,4.328C214.682,160.537,212.833,158.702,212.833,156.209 M217.052,161.399c2.82,0,5.23-2.191,5.23-5.19
		c0-2.972-2.41-5.163-5.23-5.163c-2.849,0-5.259,2.191-5.259,5.163C211.793,159.208,214.203,161.399,217.052,161.399
		 M215.955,156.62h1.042l1.574,2.588h1.014l-1.698-2.629c0.877-0.11,1.548-0.575,1.548-1.643c0-1.179-0.699-1.699-2.109-1.699
		h-2.273v5.971h0.903V156.62z M215.955,155.853v-1.849h1.233c0.63,0,1.301,0.137,1.301,0.877c0,0.917-0.685,0.972-1.452,0.972
		H215.955z"/>
	<rect x="3.943" y="199.055" clip-path="url(#XMLID_3_)" width="3.212" height="15.292"/>
	<path clip-path="url(#XMLID_3_)" d="M12.436,202.795c0.264,0.462,0.418,0.946,0.418,1.408c0.44-0.308,0.814-0.572,1.298-0.836
		c0.594-0.308,1.364-0.484,2.024-0.484c1.255,0,2.355,0.66,2.707,1.628c0.154,0.418,0.22,0.903,0.22,1.607v8.229h-2.905v-7.327
		c0-1.276-0.22-1.651-0.99-1.651c-0.594,0-1.364,0.397-2.046,1.012v7.966h-2.949v-8.163c0-0.969-0.131-1.893-0.396-2.641
		L12.436,202.795z"/>
	<path clip-path="url(#XMLID_3_)" d="M24.029,202.795c0.264,0.462,0.418,0.946,0.418,1.408c0.44-0.308,0.814-0.572,1.298-0.836
		c0.594-0.308,1.364-0.484,2.024-0.484c1.255,0,2.355,0.66,2.707,1.628c0.154,0.418,0.22,0.903,0.22,1.607v8.229h-2.905v-7.327
		c0-1.276-0.22-1.651-0.99-1.651c-0.594,0-1.364,0.397-2.046,1.012v7.966h-2.949v-8.163c0-0.969-0.131-1.893-0.396-2.641
		L24.029,202.795z"/>
	<path clip-path="url(#XMLID_3_)" d="M41.454,204.556c0.902,1.056,1.298,2.288,1.298,4.114c0,1.936-0.44,3.257-1.408,4.357
		c-0.859,0.968-1.981,1.562-3.719,1.562c-3.058,0-5.06-2.288-5.06-5.831c0-3.542,2.024-5.897,5.06-5.897
		C39.232,202.861,40.485,203.412,41.454,204.556 M36.151,206.184c-0.198,0.594-0.308,1.386-0.308,2.508
		c0,1.299,0.132,2.266,0.374,2.839c0.264,0.616,0.924,0.924,1.497,0.924c1.275,0,1.826-1.145,1.826-3.807
		c0-1.518-0.199-2.508-0.595-3.014c-0.286-0.374-0.748-0.594-1.276-0.594C36.965,205.04,36.393,205.48,36.151,206.184"/>
	<path clip-path="url(#XMLID_3_)" d="M45.52,202.883l1.628,5.083c0.242,0.748,0.572,1.98,0.726,2.707
		c0.088-0.661,0.33-1.739,0.682-2.861l1.519-4.731h3.08l-4.114,11.266h-2.443l-4.093-11.09L45.52,202.883z"/>
	<path clip-path="url(#XMLID_3_)" d="M55.155,203.5c1.1-0.462,2.047-0.66,3.081-0.66c1.892,0,3.19,0.704,3.63,1.958
		c0.155,0.462,0.221,0.814,0.199,2.025L62,210.606v0.198c0,1.21,0.197,1.673,1.056,2.31l-1.563,1.805
		c-0.682-0.286-1.298-0.793-1.584-1.364c-0.22,0.219-0.462,0.44-0.682,0.593c-0.55,0.397-1.342,0.617-2.266,0.617
		c-2.509,0-3.873-1.276-3.873-3.521c0-2.64,1.827-3.872,5.413-3.872c0.22,0,0.418,0,0.66,0.022v-0.462
		c0-1.255-0.242-1.673-1.32-1.673c-0.946,0-2.046,0.463-3.256,1.277l-1.255-2.113C53.923,204.049,54.363,203.83,55.155,203.5
		 M58.984,209.418c-2.046,0-2.75,0.374-2.75,1.716c0,0.88,0.55,1.474,1.298,1.474c0.55,0,1.1-0.286,1.54-0.77l0.044-2.42H58.984z"/>
	<path clip-path="url(#XMLID_3_)" d="M69.479,205.106h-1.893v5.655c0,1.43,0.265,1.804,1.277,1.804c0.264,0,0.528-0.066,1.056-0.22
		l0.374,1.76c-0.858,0.352-1.628,0.506-2.398,0.506c-1.497,0-2.685-0.66-3.037-1.65c-0.176-0.484-0.198-0.704-0.198-1.738v-6.117
		h-1.122v-2.024h1.122c0-1.101,0-1.827,0.11-2.663l2.993-0.748c-0.111,1.034-0.177,2.267-0.177,3.411h2.641L69.479,205.106z"/>
	<path clip-path="url(#XMLID_3_)" d="M75.154,199.979c0,1.012-0.814,1.826-1.826,1.826c-0.99,0-1.805-0.814-1.805-1.826
		c0-1.013,0.837-1.827,1.849-1.827C74.362,198.152,75.154,198.966,75.154,199.979 M74.802,202.817v11.53h-2.949v-11.068
		L74.802,202.817z"/>
	<path clip-path="url(#XMLID_3_)" d="M78.761,202.883l1.628,5.083c0.242,0.748,0.572,1.98,0.726,2.707
		c0.088-0.661,0.33-1.739,0.682-2.861l1.519-4.731h3.08l-4.114,11.266h-2.443l-4.093-11.09L78.761,202.883z"/>
	<path clip-path="url(#XMLID_3_)" d="M96.033,213.093c-1.298,1.056-2.662,1.562-4.246,1.562c-3.235,0-5.325-2.288-5.325-5.831
		c0-2.024,0.418-3.366,1.408-4.466c0.924-1.034,2.047-1.519,3.543-1.519c1.298,0,2.53,0.441,3.256,1.189
		c1.034,1.056,1.497,2.574,1.497,4.929v0.682h-6.514v0.088c0,1.738,0.859,2.728,2.377,2.728c1.012,0,1.958-0.374,2.86-1.122
		L96.033,213.093z M93.107,207.482v-0.132c0-0.836-0.088-1.276-0.352-1.694c-0.286-0.44-0.704-0.66-1.298-0.66
		c-1.122,0-1.761,0.88-1.761,2.442v0.044H93.107z"/>
	<polygon clip-path="url(#XMLID_3_)" points="112.115,199.055 111.609,201.607 107.957,201.607 107.957,214.347 104.832,214.347 
		104.832,201.607 101.092,201.607 101.092,199.055 	"/>
	<path clip-path="url(#XMLID_3_)" d="M116.34,199.979c0,1.012-0.814,1.826-1.826,1.826c-0.99,0-1.805-0.814-1.805-1.826
		c0-1.013,0.837-1.827,1.849-1.827C115.548,198.152,116.34,198.966,116.34,199.979 M115.988,202.817v11.53h-2.949v-11.068
		L115.988,202.817z"/>
	<path clip-path="url(#XMLID_3_)" d="M121.576,200.991v8.779c0,1.936,0.022,2.2,0.198,2.509c0.11,0.198,0.352,0.308,0.594,0.308
		c0.11,0,0.176,0,0.331-0.044l0.505,1.76c-0.505,0.198-1.122,0.308-1.76,0.308c-1.254,0-2.266-0.594-2.618-1.54
		c-0.22-0.572-0.264-0.924-0.264-2.531v-8.405c0-1.474-0.044-2.376-0.154-3.388l3.014-0.682
		C121.532,198.681,121.576,199.407,121.576,200.991"/>
	<path clip-path="url(#XMLID_3_)" d="M133.875,213.093c-1.299,1.056-2.663,1.562-4.247,1.562c-3.235,0-5.325-2.288-5.325-5.831
		c0-2.024,0.418-3.366,1.408-4.466c0.924-1.034,2.047-1.519,3.543-1.519c1.298,0,2.53,0.441,3.257,1.189
		c1.034,1.056,1.496,2.574,1.496,4.929v0.682h-6.514v0.088c0,1.738,0.859,2.728,2.377,2.728c1.012,0,1.958-0.374,2.86-1.122
		L133.875,213.093z M130.948,207.482v-0.132c0-0.836-0.088-1.276-0.352-1.694c-0.286-0.44-0.704-0.66-1.298-0.66
		c-1.122,0-1.761,0.88-1.761,2.442v0.044H130.948z"/>
	<path clip-path="url(#XMLID_3_)" d="M141.926,203.5c1.1-0.462,2.046-0.66,3.08-0.66c1.893,0,3.19,0.704,3.631,1.958
		c0.153,0.462,0.22,0.814,0.197,2.025l-0.065,3.784v0.198c0,1.21,0.198,1.673,1.056,2.31l-1.562,1.805
		c-0.683-0.286-1.299-0.793-1.585-1.364c-0.22,0.219-0.462,0.44-0.682,0.593c-0.55,0.397-1.343,0.617-2.267,0.617
		c-2.508,0-3.872-1.276-3.872-3.521c0-2.64,1.826-3.872,5.412-3.872c0.221,0,0.418,0,0.66,0.022v-0.462
		c0-1.255-0.242-1.673-1.32-1.673c-0.945,0-2.046,0.463-3.256,1.277l-1.254-2.113C140.693,204.049,141.133,203.83,141.926,203.5
		 M145.754,209.418c-2.046,0-2.75,0.374-2.75,1.716c0,0.88,0.55,1.474,1.298,1.474c0.55,0,1.101-0.286,1.54-0.77l0.044-2.42H145.754
		z"/>
	<path clip-path="url(#XMLID_3_)" d="M153.827,202.795c0.264,0.462,0.418,0.946,0.418,1.408c0.44-0.308,0.813-0.572,1.298-0.836
		c0.595-0.308,1.364-0.484,2.024-0.484c1.254,0,2.354,0.66,2.706,1.628c0.154,0.418,0.221,0.903,0.221,1.607v8.229h-2.904v-7.327
		c0-1.276-0.221-1.651-0.991-1.651c-0.594,0-1.363,0.397-2.046,1.012v7.966h-2.948v-8.163c0-0.969-0.132-1.893-0.396-2.641
		L153.827,202.795z"/>
	<path clip-path="url(#XMLID_3_)" d="M172.088,210.233c0,2.772,0.22,3.675,0.418,4.114h-2.641c-0.088-0.175-0.132-0.352-0.176-0.66
		c-0.727,0.639-1.584,0.947-2.597,0.947c-2.86,0-4.664-2.223-4.664-5.721c0-3.521,1.958-5.941,4.818-5.941
		c0.814,0,1.452,0.198,2.002,0.638c-0.044-0.242-0.088-1.012-0.088-1.672v-3.873l2.927,0.462V210.233z M167.599,205.326
		c-1.319,0-1.892,1.101-1.892,3.609c0,2.42,0.506,3.212,2.046,3.212c0.55,0,1.166-0.374,1.452-0.726v-5.369
		C168.655,205.568,168.127,205.326,167.599,205.326"/>
	<path clip-path="url(#XMLID_3_)" d="M188.301,202.333c-1.386-0.836-2.42-1.166-3.564-1.166c-1.254,0-2.134,0.726-2.134,1.76
		c0,0.792,0.418,1.188,1.694,1.54l1.848,0.506c2.51,0.682,3.873,2.289,3.873,4.555c0,3.102-2.509,5.149-6.315,5.149
		c-1.737,0-3.673-0.506-5.214-1.386l1.144-2.399c1.431,0.748,2.662,1.233,4.203,1.233c1.76,0,2.684-0.727,2.684-2.091
		c0-0.99-0.638-1.606-2.002-1.98l-1.694-0.462c-1.518-0.418-2.464-1.012-3.015-1.937c-0.418-0.682-0.638-1.474-0.638-2.332
		c0-2.794,2.244-4.731,5.479-4.731c1.87,0,3.763,0.573,5.105,1.541L188.301,202.333z"/>
	<path clip-path="url(#XMLID_3_)" d="M196.792,205.106H194.9v5.655c0,1.43,0.264,1.804,1.275,1.804c0.265,0,0.528-0.066,1.057-0.22
		l0.374,1.76c-0.858,0.352-1.628,0.506-2.398,0.506c-1.496,0-2.685-0.66-3.036-1.65c-0.177-0.484-0.198-0.704-0.198-1.738v-6.117
		h-1.122v-2.024h1.122c0-1.101,0-1.827,0.11-2.663l2.992-0.748c-0.11,1.034-0.176,2.267-0.176,3.411h2.64L196.792,205.106z"/>
	<path clip-path="url(#XMLID_3_)" d="M207.222,204.556c0.901,1.056,1.298,2.288,1.298,4.114c0,1.936-0.44,3.257-1.408,4.357
		c-0.858,0.968-1.98,1.562-3.719,1.562c-3.059,0-5.061-2.288-5.061-5.831c0-3.542,2.023-5.897,5.061-5.897
		C204.999,202.861,206.253,203.412,207.222,204.556 M201.919,206.184c-0.198,0.594-0.309,1.386-0.309,2.508
		c0,1.299,0.132,2.266,0.374,2.839c0.265,0.616,0.924,0.924,1.496,0.924c1.276,0,1.826-1.145,1.826-3.807
		c0-1.518-0.197-2.508-0.594-3.014c-0.286-0.374-0.748-0.594-1.276-0.594C202.731,205.04,202.16,205.48,201.919,206.184"/>
	<path clip-path="url(#XMLID_3_)" d="M212.654,202.795c0.264,0.462,0.418,0.946,0.418,1.408c0.44-0.308,0.814-0.572,1.298-0.836
		c0.595-0.308,1.364-0.484,2.024-0.484c1.254,0,2.354,0.66,2.707,1.628c0.153,0.418,0.22,0.903,0.22,1.607v8.229h-2.904v-7.327
		c0-1.276-0.221-1.651-0.99-1.651c-0.595,0-1.364,0.397-2.047,1.012v7.966h-2.948v-8.163c0-0.969-0.131-1.893-0.396-2.641
		L212.654,202.795z"/>
	<path clip-path="url(#XMLID_3_)" d="M230.827,213.093c-1.299,1.056-2.663,1.562-4.247,1.562c-3.234,0-5.324-2.288-5.324-5.831
		c0-2.024,0.418-3.366,1.408-4.466c0.924-1.034,2.046-1.519,3.542-1.519c1.298,0,2.53,0.441,3.257,1.189
		c1.034,1.056,1.496,2.574,1.496,4.929v0.682h-6.513v0.088c0,1.738,0.857,2.728,2.376,2.728c1.012,0,1.958-0.374,2.86-1.122
		L230.827,213.093z M227.9,207.482v-0.132c0-0.836-0.088-1.276-0.352-1.694c-0.286-0.44-0.704-0.66-1.299-0.66
		c-1.122,0-1.76,0.88-1.76,2.442v0.044H227.9z"/>
	<rect x="24.545" y="223.255" clip-path="url(#XMLID_3_)" width="3.212" height="15.292"/>
	<path clip-path="url(#XMLID_3_)" d="M33.038,226.996c0.264,0.462,0.418,0.946,0.418,1.408c0.44-0.308,0.814-0.572,1.298-0.836
		c0.594-0.308,1.364-0.484,2.024-0.484c1.255,0,2.355,0.66,2.707,1.628c0.154,0.418,0.22,0.903,0.22,1.607v8.229H36.8v-7.326
		c0-1.276-0.22-1.651-0.99-1.651c-0.594,0-1.364,0.397-2.046,1.012v7.965h-2.949v-8.162c0-0.969-0.131-1.893-0.396-2.641
		L33.038,226.996z"/>
	<path clip-path="url(#XMLID_3_)" d="M49.12,230.01c-1.122-0.572-1.936-0.814-2.772-0.814c-0.858,0-1.431,0.44-1.431,1.1
		c0,0.572,0.375,0.88,1.409,1.144l1.364,0.352c1.386,0.352,1.848,0.77,2.244,1.276c0.418,0.528,0.616,1.167,0.616,1.915
		c0,2.332-1.936,3.916-4.818,3.916c-1.386,0-2.904-0.44-4.555-1.298l1.056-2.156c0.902,0.55,2.465,1.276,3.741,1.276
		c0.836,0,1.496-0.55,1.496-1.276c0-0.77-0.55-1.166-1.738-1.387l-1.32-0.241c-0.749-0.133-1.673-0.661-2.069-1.145
		s-0.638-1.298-0.638-2.024c0-2.201,1.738-3.675,4.357-3.675c1.804,0,2.992,0.551,4.026,1.057L49.12,230.01z"/>
	<path clip-path="url(#XMLID_3_)" d="M57.105,229.306h-1.893v5.655c0,1.43,0.265,1.804,1.277,1.804c0.264,0,0.528-0.066,1.056-0.22
		l0.374,1.76c-0.858,0.352-1.628,0.506-2.398,0.506c-1.497,0-2.685-0.66-3.037-1.65c-0.176-0.484-0.198-0.704-0.198-1.738v-6.117
		h-1.122v-2.024h1.122c0-1.101,0-1.827,0.11-2.663l2.993-0.748c-0.111,1.034-0.177,2.267-0.177,3.411h2.641L57.105,229.306z"/>
	<path clip-path="url(#XMLID_3_)" d="M60.822,227.7c1.1-0.462,2.047-0.66,3.081-0.66c1.892,0,3.19,0.704,3.63,1.958
		c0.155,0.462,0.221,0.814,0.199,2.025l-0.066,3.784v0.198c0,1.21,0.197,1.673,1.056,2.31l-1.563,1.804
		c-0.682-0.286-1.298-0.792-1.584-1.363c-0.22,0.219-0.462,0.439-0.682,0.593c-0.55,0.396-1.342,0.616-2.266,0.616
		c-2.509,0-3.873-1.275-3.873-3.52c0-2.64,1.826-3.872,5.413-3.872c0.22,0,0.418,0,0.66,0.022v-0.462
		c0-1.255-0.242-1.673-1.32-1.673c-0.946,0-2.046,0.463-3.256,1.277l-1.255-2.113C59.59,228.25,60.03,228.03,60.822,227.7
		 M64.651,233.619c-2.046,0-2.75,0.374-2.75,1.716c0,0.88,0.55,1.474,1.298,1.474c0.55,0,1.1-0.286,1.54-0.77l0.044-2.42H64.651z"/>
	<path clip-path="url(#XMLID_3_)" d="M73.34,225.191v8.779c0,1.936,0.022,2.2,0.198,2.509c0.11,0.198,0.352,0.308,0.594,0.308
		c0.11,0,0.176,0,0.331-0.044l0.505,1.761c-0.505,0.197-1.122,0.308-1.76,0.308c-1.254,0-2.266-0.595-2.618-1.54
		c-0.22-0.572-0.264-0.924-0.264-2.531v-8.405c0-1.474-0.044-2.376-0.154-3.388l3.014-0.682
		C73.296,222.881,73.34,223.607,73.34,225.191"/>
	<path clip-path="url(#XMLID_3_)" d="M79.676,225.191v8.779c0,1.936,0.022,2.2,0.198,2.509c0.11,0.198,0.352,0.308,0.594,0.308
		c0.11,0,0.176,0,0.331-0.044l0.505,1.761c-0.505,0.197-1.122,0.308-1.76,0.308c-1.254,0-2.266-0.595-2.618-1.54
		c-0.22-0.572-0.264-0.924-0.264-2.531v-8.405c0-1.474-0.044-2.376-0.154-3.388l3.014-0.682
		C79.632,222.881,79.676,223.607,79.676,225.191"/>
	<path clip-path="url(#XMLID_3_)" d="M84.516,227.7c1.1-0.462,2.047-0.66,3.081-0.66c1.892,0,3.19,0.704,3.63,1.958
		c0.155,0.462,0.221,0.814,0.199,2.025l-0.066,3.784v0.198c0,1.21,0.197,1.673,1.056,2.31l-1.563,1.804
		c-0.682-0.286-1.298-0.792-1.584-1.363c-0.22,0.219-0.462,0.439-0.682,0.593c-0.55,0.396-1.342,0.616-2.266,0.616
		c-2.509,0-3.873-1.275-3.873-3.52c0-2.64,1.827-3.872,5.413-3.872c0.22,0,0.418,0,0.66,0.022v-0.462
		c0-1.255-0.242-1.673-1.32-1.673c-0.946,0-2.046,0.463-3.256,1.277l-1.255-2.113C83.284,228.25,83.724,228.03,84.516,227.7
		 M88.345,233.619c-2.046,0-2.75,0.374-2.75,1.716c0,0.88,0.55,1.474,1.298,1.474c0.55,0,1.1-0.286,1.54-0.77l0.044-2.42H88.345z"/>
	<path clip-path="url(#XMLID_3_)" d="M98.838,229.306h-1.893v5.655c0,1.43,0.265,1.804,1.277,1.804c0.264,0,0.528-0.066,1.056-0.22
		l0.374,1.76c-0.858,0.352-1.628,0.506-2.398,0.506c-1.497,0-2.685-0.66-3.037-1.65c-0.176-0.484-0.198-0.704-0.198-1.738v-6.117
		h-1.122v-2.024h1.122c0-1.101,0-1.827,0.11-2.663l2.993-0.748c-0.111,1.034-0.177,2.267-0.177,3.411h2.641L98.838,229.306z"/>
	<path clip-path="url(#XMLID_3_)" d="M104.514,224.18c0,1.012-0.814,1.826-1.826,1.826c-0.99,0-1.805-0.814-1.805-1.826
		c0-1.013,0.837-1.827,1.849-1.827C103.722,222.353,104.514,223.167,104.514,224.18 M104.162,227.018v11.529h-2.949v-11.067
		L104.162,227.018z"/>
	<path clip-path="url(#XMLID_3_)" d="M114.965,228.756c0.902,1.056,1.298,2.288,1.298,4.114c0,1.936-0.44,3.257-1.408,4.357
		c-0.859,0.968-1.981,1.562-3.719,1.562c-3.058,0-5.06-2.288-5.06-5.831c0-3.542,2.024-5.897,5.06-5.897
		C112.743,227.062,113.996,227.612,114.965,228.756 M109.662,230.384c-0.198,0.594-0.308,1.386-0.308,2.508
		c0,1.299,0.132,2.266,0.374,2.839c0.264,0.616,0.924,0.924,1.497,0.924c1.275,0,1.826-1.145,1.826-3.807
		c0-1.518-0.199-2.508-0.595-3.014c-0.286-0.374-0.748-0.594-1.276-0.594C110.476,229.24,109.904,229.68,109.662,230.384"/>
	<path clip-path="url(#XMLID_3_)" d="M120.398,226.996c0.264,0.462,0.418,0.946,0.418,1.408c0.44-0.308,0.814-0.572,1.298-0.836
		c0.594-0.308,1.364-0.484,2.024-0.484c1.255,0,2.355,0.66,2.707,1.628c0.154,0.418,0.22,0.903,0.22,1.607v8.229h-2.905v-7.326
		c0-1.276-0.22-1.651-0.99-1.651c-0.594,0-1.364,0.397-2.046,1.012v7.965h-2.949v-8.162c0-0.969-0.131-1.893-0.396-2.641
		L120.398,226.996z"/>
	<path clip-path="url(#XMLID_3_)" d="M143.059,226.534c-1.387-0.836-2.421-1.166-3.565-1.166c-1.254,0-2.134,0.726-2.134,1.76
		c0,0.792,0.418,1.188,1.694,1.54l1.848,0.506c2.509,0.682,3.873,2.289,3.873,4.555c0,3.102-2.509,5.148-6.315,5.148
		c-1.738,0-3.674-0.506-5.213-1.385l1.143-2.399c1.431,0.748,2.662,1.233,4.203,1.233c1.76,0,2.684-0.727,2.684-2.091
		c0-0.99-0.638-1.606-2.002-1.98l-1.693-0.462c-1.519-0.418-2.465-1.012-3.016-1.937c-0.418-0.682-0.638-1.474-0.638-2.332
		c0-2.794,2.244-4.731,5.479-4.731c1.87,0,3.763,0.573,5.105,1.541L143.059,226.534z"/>
	<path clip-path="url(#XMLID_3_)" d="M147.943,227.106l1.958,6.579c0.198,0.682,0.594,2.332,0.594,2.332s0.221-1.254,0.353-1.804
		c0.088-0.374,0.264-1.034,0.439-1.563l1.694-5.368h3.103l-4.093,11.44c-0.77,2.179-1.342,3.125-2.156,3.719
		c-0.747,0.551-1.716,0.902-2.729,1.034l-1.012-1.937c0.638-0.176,1.386-0.439,1.827-0.748c0.329-0.241,0.593-0.55,0.835-0.924
		c0.286-0.462,0.375-0.66,0.639-1.32h-0.748c-0.353-1.056-0.946-2.816-1.057-3.168l-2.662-7.921L147.943,227.106z"/>
	<path clip-path="url(#XMLID_3_)" d="M163.915,230.01c-1.122-0.572-1.938-0.814-2.772-0.814c-0.857,0-1.43,0.44-1.43,1.1
		c0,0.572,0.374,0.88,1.408,1.144l1.364,0.352c1.386,0.352,1.848,0.77,2.243,1.276c0.419,0.528,0.617,1.167,0.617,1.915
		c0,2.332-1.937,3.916-4.819,3.916c-1.386,0-2.904-0.44-4.555-1.298l1.057-2.156c0.902,0.55,2.464,1.276,3.74,1.276
		c0.835,0,1.496-0.55,1.496-1.276c0-0.77-0.55-1.166-1.738-1.387l-1.319-0.241c-0.749-0.133-1.673-0.661-2.068-1.145
		c-0.396-0.484-0.639-1.298-0.639-2.024c0-2.201,1.738-3.675,4.356-3.675c1.805,0,2.993,0.551,4.027,1.057L163.915,230.01z"/>
	<path clip-path="url(#XMLID_3_)" d="M171.9,229.306h-1.892v5.655c0,1.43,0.264,1.804,1.275,1.804c0.265,0,0.528-0.066,1.057-0.22
		l0.374,1.76c-0.858,0.352-1.627,0.506-2.398,0.506c-1.496,0-2.685-0.66-3.036-1.65c-0.177-0.484-0.198-0.704-0.198-1.738v-6.117
		h-1.122v-2.024h1.122c0-1.101,0-1.827,0.11-2.663l2.992-0.748c-0.11,1.034-0.176,2.267-0.176,3.411h2.64L171.9,229.306z"/>
	<path clip-path="url(#XMLID_3_)" d="M183.078,237.293c-1.299,1.056-2.663,1.563-4.247,1.563c-3.234,0-5.324-2.289-5.324-5.832
		c0-2.024,0.418-3.366,1.408-4.466c0.924-1.034,2.046-1.519,3.542-1.519c1.299,0,2.53,0.441,3.258,1.189
		c1.033,1.056,1.495,2.574,1.495,4.929v0.682h-6.513v0.088c0,1.738,0.857,2.728,2.376,2.728c1.012,0,1.958-0.374,2.86-1.122
		L183.078,237.293z M180.151,231.682v-0.132c0-0.836-0.088-1.276-0.352-1.694c-0.286-0.44-0.704-0.66-1.299-0.66
		c-1.122,0-1.76,0.88-1.76,2.442v0.044H180.151z"/>
	<path clip-path="url(#XMLID_3_)" d="M187.433,227.083c0.198,0.308,0.286,0.572,0.396,1.145c0.771-0.749,1.717-1.145,2.75-1.145
		c0.925,0,1.695,0.308,2.289,0.924c0.154,0.154,0.309,0.352,0.44,0.551c1.034-1.057,1.958-1.475,3.19-1.475
		c0.88,0,1.716,0.264,2.222,0.704c0.639,0.55,0.837,1.211,0.837,2.751v8.008h-2.86v-7.437c0-1.342-0.154-1.607-0.925-1.607
		c-0.55,0-1.32,0.374-1.958,0.947v8.096h-2.794v-7.326c0-1.408-0.198-1.739-1.013-1.739c-0.55,0-1.298,0.287-1.937,0.859v8.207
		h-2.882v-7.854c0-1.629-0.11-2.333-0.418-2.882L187.433,227.083z"/>
	<path clip-path="url(#XMLID_3_)" d="M208.971,230.01c-1.122-0.572-1.938-0.814-2.772-0.814c-0.857,0-1.43,0.44-1.43,1.1
		c0,0.572,0.374,0.88,1.408,1.144l1.364,0.352c1.386,0.352,1.848,0.77,2.244,1.276c0.418,0.528,0.616,1.167,0.616,1.915
		c0,2.332-1.937,3.916-4.819,3.916c-1.386,0-2.904-0.44-4.555-1.298l1.057-2.156c0.902,0.55,2.464,1.276,3.74,1.276
		c0.836,0,1.496-0.55,1.496-1.276c0-0.77-0.55-1.166-1.738-1.387l-1.319-0.241c-0.749-0.133-1.673-0.661-2.068-1.145
		c-0.396-0.484-0.639-1.298-0.639-2.024c0-2.201,1.738-3.675,4.356-3.675c1.805,0,2.993,0.551,4.027,1.057L208.971,230.01z"/>
</g>
<rect id="_x3C_Slice_x3E_" fill="none" width="231" height="164"/>
</svg>
